<?xml version="1.0" standalone="no"?>
<!DOCTYPE svg PUBLIC "-//W3C//DTD SVG 20010904//EN"
 "http://www.w3.org/TR/2001/REC-SVG-20010904/DTD/svg10.dtd">
<svg version="1.0" xmlns="http://www.w3.org/2000/svg"
 width="505.000000pt" height="505.000000pt" viewBox="0 0 505.000000 505.000000"
 preserveAspectRatio="xMidYMid meet">
<metadata>
Created by potrace 1.11, written by Peter Selinger 2001-2013
</metadata>
<g transform="translate(0.000000,505.000000) scale(0.100000,-0.100000)"
fill="#000000" stroke="none">
<path d="M1520 4627 c-6 -12 -252 -667 -548 -1455 l-538 -1432 -164 -78 c-158
-75 -165 -80 -168 -109 l-3 -31 73 -6 c40 -3 245 -8 456 -10 l383 -5 -3 41 -3
41 -115 63 c-63 35 -119 65 -125 67 -8 3 253 721 275 758 7 11 449 27 805 28
l120 1 66 -178 c37 -97 63 -181 59 -187 -9 -12 -1027 -1358 -1178 -1558 -97
-128 -104 -140 -88 -155 15 -15 17 -15 35 3 10 11 441 578 956 1260 516 682
945 1248 954 1258 16 16 52 17 543 15 l527 -3 -798 -1145 -799 -1145 -10 -115
c-6 -63 -7 -118 -3 -123 4 -4 467 -4 1029 0 l1022 6 5 21 c14 60 132 842 128
848 -2 5 -29 8 -58 8 -65 0 -42 30 -230 -299 l-141 -246 -552 -3 c-304 -1
-552 0 -552 2 0 3 360 521 800 1152 l800 1147 0 79 0 78 -750 2 -749 3 525
695 c522 689 539 713 498 727 -5 2 -367 -470 -804 -1047 -776 -1026 -795
-1050 -806 -1023 -7 15 -163 469 -348 1007 -185 539 -338 981 -339 982 -1 2
-42 21 -90 43 l-88 40 -9 -22z m230 -1312 c90 -341 165 -626 168 -632 3 -10
-81 -13 -402 -13 -223 0 -406 3 -406 7 0 20 466 1271 471 1265 3 -4 79 -286
169 -627z"/>
</g>
</svg>
