<?xml version="1.0" standalone="no"?>
<!DOCTYPE svg PUBLIC "-//W3C//DTD SVG 20010904//EN"
 "http://www.w3.org/TR/2001/REC-SVG-20010904/DTD/svg10.dtd">
<svg version="1.0" xmlns="http://www.w3.org/2000/svg"
 width="286.000000pt" height="286.000000pt" viewBox="0 0 286.000000 286.000000"
 preserveAspectRatio="xMidYMid meet">
<metadata>
Created by potrace 1.11, written by Peter Selinger 2001-2013
</metadata>
<g transform="translate(0.000000,286.000000) scale(0.100000,-0.100000)"
fill="#000000" stroke="none">
<path d="M1265 2853 c-329 -44 -636 -196 -855 -422 -93 -97 -101 -106 -173
-214 -103 -153 -175 -331 -214 -523 -24 -123 -24 -404 0 -528 56 -278 188
-532 377 -726 137 -140 253 -224 420 -303 196 -92 362 -129 585 -131 179 -1
251 6 377 38 478 121 867 488 1013 958 48 153 64 274 60 453 -4 177 -7 200
-40 331 -63 249 -187 465 -375 653 -119 119 -242 207 -385 276 -211 101 -358
136 -595 140 -91 1 -178 1 -195 -2z"/>
</g>
</svg>
